# AST/ASF file generated using VICON BodyLanguage
# -----------------------------------------------
:version 1.10
:name VICON
:units
  mass 1.0
  length 0.45
  angle deg
:documentation
   .ast/.asf automatically generated from VICON data using
   VICON BodyBuilder and BodyLanguage model FoxedUp or BRILLIANT.MOD
:root
   order TX TY TZ RX RY RZ
   axis XYZ
   position 0 0 0  
   orientation 0 0 0 
:bonedata
  begin
     id 1 
     name lhipjoint
     direction 0.660183 -0.676772 0.325788 
     length 2.75133 
     axis 0 0 0  XYZ
  end
  begin
     id 2 
     name lfemur
     direction 0.34202 -0.939693 0  
     length 7.70317  
     axis 0 0 20  XYZ
    dof rx ry rz
    limits (-160.0 20.0)
           (-70.0 70.0)
           (-60.0 70.0)
  end
  begin
     id 3 
     name ltibia
     direction 0.342105 -0.939662 0   
     length 7.18701   
     axis 0 0 20   XYZ
    dof rx
    limits (-10.0 170.0)
  end
  begin
     id 4 
     name lfoot
     direction 0.14163 -0.389126 0.910232   
     length 2.41719   
     axis -90 7.62852e-016 20   XYZ
    dof rx rz
    limits (-45.0 90.0)
           (-70.0 20.0)
  end
  begin
     id 5 
     name ltoes
     direction 1.53533e-011 -4.21926e-011 1   
     length 1.18611   
     axis -90 7.62852e-016 20   XYZ
    dof rx
    limits (-90.0 20.0)
  end
  begin
     id 6 
     name rhipjoint
     direction -0.6658 -0.67229 0.323631   
     length 2.76968  
     axis 0 0 0  XYZ 
  end
  begin
     id 7 
     name rfemur
     direction -0.34202 -0.939693 0   
     length 7.92547   
     axis 0 0 -20   XYZ
    dof rx ry rz
    limits (-160.0 20.0)
           (-70.0 70.0)
           (-70.0 60.0)
  end
  begin
     id 8 
     name rtibia
     direction -0.342022 -0.939692 0   
     length 7.22641   
     axis 0 0 -20   XYZ
    dof rx
    limits (-10.0 170.0)
 end
 begin
     id 9 
     name rfoot
     direction -0.105675 -0.29034 0.951071   
     length 2.48149  
     axis -90 -7.62852e-016 -20   XYZ
    dof rx rz
    limits (-45.0 90.0)
           (-20.0 70.0)
  end
  begin
     id 10 
     name rtoes
     direction -1.5349e-011 -4.21859e-011 1   
     length 1.23343   
     axis -90 -7.62852e-016 -20   XYZ
    dof rx
    limits (-90.0 20.0)
  end
  begin
     id 11 
     name lowerback
     direction 0.0104173 0.993624 -0.112266   
     length 2.00527   
     axis 0 0 0   XYZ
    dof rx ry rz
    limits (-20.0 45.0)
           (-30.0 30.0)
           (-30.0 30.0)
  end
  begin
     id 12 
     name upperback
     direction 0.00733149 0.999856 -0.0152913   
     length 2.01385   
     axis 0 0 0   XYZ
    dof rx ry rz
    limits (-20.0 45.0)
           (-30.0 30.0)
           (-30.0 30.0)
  end
  begin
     id 13 
     name thorax
     direction 0.0026304 0.999318 0.036841   
     length 2.03734   
     axis 0 0 0   XYZ
    dof rx ry rz
    limits (-20.0 45.0)
           (-30.0 30.0)
           (-30.0 30.0)
  end
  begin
     id 14 
     name lowerneck
     direction 0.0293154 0.998757 0.0403082   
     length 1.65303   
     axis 0 0 0   XYZ
    dof rx ry rz
    limits (-20.0 45.0)
           (-30.0 30.0)
           (-30.0 30.0)
  end
  begin
     id 15 
     name upperneck
     direction -0.0376619 0.998184 -0.0470083   
     length 1.60926   
     axis 0 0 0   XYZ
    dof rx ry rz
    limits (-20.0 45.0)
           (-30.0 30.0)
           (-30.0 30.0)
  end
  begin
     id 16
     name head
     direction -0.0170133 0.999635 -0.0209778  
     length 1.73625  
     axis 0 0 0   XYZ
    dof rx ry rz
    limits (-20.0 45.0)
           (-30.0 30.0)
           (-30.0 30.0)
  end
  begin
     id 17 
     name lclavicle
     direction 0.919857 0.39181 -0.0186333  
     length 3.75313  
     axis 0 0 0   XYZ
    dof ry rz
    limits (-20.0 10.0)
           (0.0 20.0)
  end
  begin
     id 18 
     name lhumerus
     direction 1 -4.48988e-011 1.44029e-027   
     length 5.49313   
     axis 180 -30 -90   XYZ
    dof rx ry rz
    limits (-60.0 90.0)
           (-90.0 90.0)
           (-90.0 90.0)
  end
  begin
     id 19
     name lradius
     direction 1 -4.48924e-011 7.46281e-027   
     length 3.29037   
     axis 180 -30 -90   XYZ
    dof rx
    limits (-10.0 170.0)
  end
  begin
     id 20
     name lwrist
     direction 1 -4.48955e-011 2.19879e-026   
     length 1.64519   
     axis -1.34358e-014 90 90   XYZ
    dof ry
    limits (-180.0 0.0)
 end
  begin
     id 21 
     name lhand
     direction 1 -4.48978e-011 4.39747e-026   
     length 0.729656   
     axis -2.80598e-014 90 90   XYZ
    dof rx rz
    limits (-90.0 90.0)
           (-45.0 45.0)
  end
  begin
     id 22 
     name lfingers
     direction 1 -4.49071e-011 8.79411e-026   
     length 0.588268   
     axis -5.61193e-014 90 90   XYZ
    dof rx
    limits (0.0 90.0)
  end
  begin
     id 23
     name lthumb
     direction 0.707107 -6.34817e-011 0.707107   
     length 0.844638   
     axis -90 45 -9.86923e-015   XYZ
    dof rx rz
    limits (-45.0 45.0)
           (-45.0 45.0)
  end
  begin
     id 24 
     name rclavicle
     direction -0.919898 0.388279 0.0550233   
     length 3.7171  
     axis 0 0 0   XYZ 
    dof ry rz
    limits (-10.0 20.0)
           (-20.0 0.0)
  end
  begin
     id 25 
     name rhumerus
     direction -1 -4.48968e-011 9.98372e-028  
     length 5.23684   
     axis 180 30 90   XYZ
    dof rx ry rz
    limits (-90.0 60.0)
           (-90.0 90.0)
           (-90.0 90.0)
  end
  begin
     id 26 
     name rradius
     direction -1 -4.48956e-011 1.01023e-026   
     length 3.38251   
     axis 180 30 90   XYZ
    dof rx
    limits (-10.0 170.0)
  end
  begin
     id 27 
     name rwrist
     direction -1 -4.4892e-011 2.19886e-026   
     length 1.69126   
     axis -1.34358e-014 -90 -90   XYZ
    dof ry
    limits (-180.0 0.0)
  end
  begin
     id 28
     name rhand
     direction -1 -4.49024e-011 4.39727e-026   
     length 0.691454   
     axis -2.80598e-014 -90 -90   XYZ
    dof rx rz
    limits (-90.0 90.0)
           (-45.0 45.0)
  end
  begin
     id 29
     name rfingers
     direction -1 -4.49097e-011 8.79388e-026   
     length 0.557468   
     axis -5.61193e-014 -90 -90   XYZ
    dof rx
    limits (0.0 90.0)
  end
  begin
     id 30
     name rthumb
     direction -0.707107 -6.34938e-011 0.707107   
     length 0.800416   
     axis -90 -45 9.86923e-015   XYZ
    dof rx rz
    limits (-45.0 45.0)
           (-45.0 45.0)
  end
:hierarchy
  begin
    root lhipjoint rhipjoint lowerback
    lhipjoint lfemur
    lfemur ltibia
    ltibia lfoot
    lfoot ltoes
    rhipjoint rfemur
    rfemur rtibia
    rtibia rfoot
    rfoot rtoes
    lowerback upperback
    upperback thorax
    thorax lowerneck lclavicle rclavicle
    lowerneck upperneck
    upperneck head
    lclavicle lhumerus
    lhumerus lradius
    lradius lwrist
    lwrist lhand lthumb
    lhand lfingers
    rclavicle rhumerus
    rhumerus rradius
    rradius rwrist
    rwrist rhand rthumb
    rhand rfingers
  end

#!OML:ASF H:\BabyWalks\Project 1\Capture day 1\Session 1\baby.ASF
:FULLY-SPECIFIED
:DEGREES
235
root -20.4359 17.8923 -21.6978 -73.7625 85.8296 -81.976
lowerback 17.6777 1.71697 3.25131
upperback 5.50348 3.21731 1.7627
thorax -3.92391 1.71141 -0.645641
lowerneck -2.74551 -1.70161 8.10265
upperneck -6.64199 -2.57638 -6.13452
head -1.86547 -1.34065 -3.42806
rclavicle 1.05356e-014 1.55052e-014
rhumerus -57.3908 22.4037 -94.1186
rradius 54.5751
rwrist -6.43194
rhand -19.2709 -16.5794
rfingers 7.12502
rthumb 7.04364 -46.4422
lclavicle 1.05356e-014 1.55052e-014
lhumerus -61.5317 -14.4882 88.0798
lradius 44.1152
lwrist -1.48649
lhand 10.3597 8.90604
lfingers 7.12502
lthumb 35.4674 35.3516
rfemur 4.31696 11.6468 24.6232
rtibia 11.5248
rfoot -15.7879 3.28633
rtoes -10.6177
lfemur -33.3573 0.991366 -11.5907
ltibia 45.8224
lfoot -21.8096 -13.4731
ltoes -0.914763
236
root -20.275 17.9156 -21.7093 -73.5929 85.7039 -82.0591
lowerback 17.4962 1.87936 3.25726
upperback 5.47351 3.41112 1.64214
thorax -3.84579 1.80593 -0.807637
lowerneck -2.8691 -1.81687 8.13479
upperneck -6.67748 -2.72817 -5.9013
head -1.86293 -1.42226 -3.35177
rclavicle -2.18663e-014 2.18663e-014
rhumerus -57.4008 22.624 -94.0895
rradius 55.3237
rwrist -7.19186
rhand -18.6799 -15.7747
rfingers 7.12502
rthumb 7.61414 -45.6176
lclavicle -2.18663e-014 2.18663e-014
lhumerus -61.7723 -14.7584 87.8992
lradius 44.6204
lwrist -1.12189
lhand 9.95173 8.74009
lfingers 7.12502
lthumb 35.0806 35.2773
rfemur 5.41548 11.4875 24.6718
rtibia 9.68776
rfoot -14.5021 3.82173
rtoes -11.2143
lfemur -33.7527 1.01877 -11.6363
ltibia 43.9739
lfoot -21.9253 -12.7496
ltoes -0.767944
237
root -20.113 17.9345 -21.7213 -73.0699 85.5767 -81.7671
lowerback 17.3154 2.04504 3.21895
upperback 5.45179 3.60295 1.53134
thorax -3.76167 1.89993 -0.932676
lowerneck -2.97337 -1.92429 8.18032
upperneck -6.70764 -2.86917 -5.68521
head -1.86165 -1.49827 -3.2843
rclavicle 1.70955e-014 0
rhumerus -57.3695 22.7878 -93.9975
rradius 56.0203
rwrist -7.98193
rhand -18.0897 -15.1645
rfingers 7.12502
rthumb 8.18379 -44.986
lclavicle 1.70955e-014 0
lhumerus -61.9698 -15.015 87.7221
lradius 45.1084
lwrist -0.798039
lhand 9.55403 8.57644
lfingers 7.12502
lthumb 34.7032 35.2013
rfemur 6.58936 11.356 24.7093
rtibia 7.7455
rfoot -13.1281 4.3629
rtoes -11.7666
lfemur -34.0944 1.05976 -11.6884
ltibia 42.3076
lfoot -22.009 -12.0042
ltoes -0.708066
238
root -19.9499 17.9488 -21.7339 -72.3289 85.4531 -81.2306
lowerback 17.1398 2.20955 3.13992
upperback 5.43679 3.78796 1.42866
thorax -3.67596 1.99089 -1.02389
lowerneck -3.05114 -2.02492 8.23232
upperneck -6.72858 -3 -5.48055
head -1.86145 -1.56891 -3.22215
rclavicle -5.30755e-014 -2.18663e-014
rhumerus -57.2996 22.8928 -93.8492
rradius 56.6727
rwrist -8.82141
rhand -17.5104 -14.7983
rfingers 7.12502
rthumb 8.74281 -44.5973
lclavicle -5.30755e-014 -2.18663e-014
lhumerus -62.117 -15.2573 87.5434
lradius 45.5805
lwrist -0.480202
lhand 9.24177 8.44755
lfingers 7.12502
lthumb 34.4068 35.1401
rfemur 7.846 11.2427 24.7343
rtibia 5.69112
rfoot -11.6652 4.8917
rtoes -12.4503
lfemur -34.3824 1.11225 -11.7544
ltibia 40.8588
lfoot -22.0615 -11.261
ltoes -0.708295
239
root -19.7862 17.9579 -21.747 -71.4893 85.3407 -80.5629
lowerback 16.9786 2.36871 3.01971
upperback 5.42853 3.96119 1.33246
thorax -3.5942 2.07624 -1.08249
lowerneck -3.10244 -2.11321 8.29155
upperneck -6.74642 -3.11315 -5.28609
head -1.86382 -1.63046 -3.16506
rclavicle 2.47487e-014 -3.37934e-014
rhumerus -57.2007 22.9417 -93.6594
rradius 57.2719
rwrist -9.65509
rhand -17.0136 -14.6579
rfingers 7.12502
rthumb 9.22219 -44.4362
lclavicle 2.47487e-014 -3.37934e-014
lhumerus -62.2135 -15.4947 87.3737
lradius 46.0361
lwrist -0.166091
lhand 9.02819 8.4083
lfingers 7.12502
lthumb 34.204 35.1465
rfemur 9.17869 11.138 24.7371
rtibia 3.55439
rfoot -10.1071 5.4309
rtoes -13.0913
lfemur -34.612 1.16851 -11.8445
ltibia 39.6399
lfoot -22.0635 -10.5389
ltoes -0.734641
240
root -19.6219 17.9613 -21.761 -70.6418 85.2474 -79.8524
lowerback 16.8364 2.51552 2.86207
upperback 5.42645 4.11424 1.23899
thorax -3.51951 2.15177 -1.11346
lowerneck -3.13582 -2.18961 8.358
upperneck -6.75402 -3.20991 -5.1053
head -1.86512 -1.68361 -3.1142
rclavicle 7.26558e-014 -4.77083e-015
rhumerus -57.0786 22.9473 -93.4449
rradius 57.81
rwrist -10.4543
rhand -16.649 -14.7073
rfingers 7.12502
rthumb 9.57402 -44.4697
lclavicle 7.26558e-014 -4.77083e-015
lhumerus -62.2625 -15.7233 87.2109
lradius 46.4725
lwrist 0.14112
lhand 8.92895 8.42733
lfingers 7.12502
lthumb 34.1098 35.1867
rfemur 10.4967 11.0331 24.7079
rtibia 1.52802
rfoot -8.53487 5.97322
rtoes -13.5895
lfemur -34.7747 1.21438 -11.9655
ltibia 38.6472
lfoot -22.0229 -9.87177
ltoes -0.784329
241
root -19.4573 17.9586 -21.7757 -69.8625 85.174 -79.1695
lowerback 16.7249 2.64362 2.67528
upperback 5.42895 4.24052 1.14564
thorax -3.45948 2.21407 -1.12398
lowerneck -3.1375 -2.24934 8.42146
upperneck -6.76569 -3.28206 -4.92475
head -1.87137 -1.72414 -3.06295
rclavicle -4.1546e-014 -2.54444e-014
rhumerus -56.9425 22.9195 -93.2253
rradius 58.2794
rwrist -11.1767
rhand -16.4532 -14.8957
rfingers 7.12502
rthumb 9.76291 -44.6494
lclavicle -4.1546e-014 -2.54444e-014
lhumerus -62.2684 -15.9485 87.0607
lradius 46.8736
lwrist 0.414909
lhand 8.90188 8.4895
lfingers 7.12502
lthumb 34.0841 35.2546
rfemur 10.767 10.9173 24.667
rtibia 1.78793
rfoot -8.10866 6.48469
rtoes -14.2532
lfemur -34.8533 1.23521 -12.1127
ltibia 37.8592
lfoot -21.9256 -9.29824
ltoes -0.845776
242
root -19.2926 17.9492 -21.7909 -69.1853 85.1208 -78.5455
lowerback 16.647 2.75345 2.45918
upperback 5.43737 4.34075 1.05461
thorax -3.41458 2.26351 -1.11228
lowerneck -3.1173 -2.29613 8.48027
upperneck -6.77696 -3.33523 -4.74601
head -1.87979 -1.7549 -3.01151
rclavicle 1.13307e-014 4.17448e-015
rhumerus -56.7993 22.8647 -93.0097
rradius 58.671
rwrist -11.7796
rhand -16.4562 -15.1663
rfingers 7.12502
rthumb 9.76007 -44.9202
lclavicle 1.13307e-014 4.17448e-015
lhumerus -62.23 -16.1797 86.9339
lradius 47.2251
lwrist 0.643603
lhand 8.9095 8.53585
lfingers 7.12502
lthumb 34.0913 35.2993
rfemur 10.1227 10.7866 24.6076
rtibia 4.05789
rfoot -8.65009 7.05064
rtoes -14.8077
lfemur -34.838 1.21584 -12.2776
ltibia 37.2553
lfoot -21.7456 -8.85319
ltoes -1.04751
243
root -19.1274 17.9328 -21.8067 -68.6404 85.0789 -78.0078
lowerback 16.6025 2.84133 2.22779
upperback 5.45387 4.41222 0.965102
thorax -3.38133 2.29894 -1.08665
lowerneck -3.09158 -2.32625 8.54075
upperneck -6.77799 -3.36587 -4.57415
head -1.8843 -1.77424 -2.96303
rclavicle -1.44119e-014 6.4605e-015
rhumerus -56.6524 22.7973 -92.8152
rradius 58.969
rwrist -12.2177
rhand -16.6804 -15.4417
rfingers 7.12502
rthumb 9.54375 -45.2055
lclavicle -1.44119e-014 6.4605e-015
lhumerus -62.15 -16.4124 86.8254
lradius 47.5298
lwrist 0.830755
lhand 8.9477 8.58814
lfingers 7.12502
lthumb 34.1276 35.3435
rfemur 9.39929 10.6424 24.5345
rtibia 6.58958
rfoot -9.23444 7.6687
rtoes -15.3087
lfemur -34.7217 1.13454 -12.4365
ltibia 36.8221
lfoot -21.4623 -8.58327
ltoes -1.45564
244
root -18.9618 17.9089 -21.823 -68.2498 85.0403 -77.5759
lowerback 16.5967 2.90656 1.99073
upperback 5.47732 4.45551 0.878755
thorax -3.36301 2.3206 -1.05138
lowerneck -3.04352 -2.34412 8.59486
upperneck -6.78562 -3.37786 -4.39594
head -1.89323 -1.7841 -2.91125
rclavicle -5.99336e-014 -8.15017e-015
rhumerus -56.5111 22.7232 -92.6513
rradius 59.1707
rwrist -12.4733
rhand -17.1204 -15.6751
rfingers 7.12502
rthumb 9.11919 -45.4579
lclavicle -5.99336e-014 -8.15017e-015
lhumerus -62.0282 -16.6489 86.7364
lradius 47.7786
lwrist 0.971273
lhand 8.99696 8.62713
lfingers 7.12502
lthumb 34.1744 35.372
rfemur 8.68951 10.4858 24.4539
rtibia 9.19426
rfoot -9.75685 8.32672
rtoes -15.9036
lfemur -34.5104 1.00791 -12.5797
ltibia 36.5646
lfoot -21.0129 -8.55143
ltoes -1.47494
245
root -18.7963 17.8777 -21.8396 -68.0467 84.9944 -77.2797
lowerback 16.636 2.95109 1.75701
upperback 5.50853 4.47473 0.799033
thorax -3.36144 2.33059 -1.00911
lowerneck -2.97917 -2.3513 8.6523
upperneck -6.79766 -3.37417 -4.22
head -1.90552 -1.78614 -2.86102
rclavicle -1.50331e-014 -2.05245e-014
rhumerus -56.3692 22.6403 -92.5151
rradius 59.2676
rwrist -12.5563
rhand -17.7326 -15.8385
rfingers 7.12502
rthumb 8.52843 -45.6463
lclavicle -1.50331e-014 -2.05245e-014
lhumerus -61.872 -16.8919 86.6724
lradius 47.971
lwrist 1.03924
lhand 9.01227 8.61982
lfingers 7.12502
lthumb 34.1889 35.3614
rfemur 8.00336 10.3192 24.3604
rtibia 11.8247
rfoot -10.0853 9.11329
rtoes -15.9226
lfemur -34.1895 0.82924 -12.6826
ltibia 36.5025
lfoot -20.49 -8.64682
ltoes -1.07218
